# xmcd
#
# Track frame offsets:
#	150
#	17273
#	35099
#	52574
#	69257
#	84476
#	99009
#	117483
#	134301
#	151579
#	168772
#	184145
#	201073
#	216248
#
# Disc length: 3085 seconds
#
# Revision: 3
# Processed by: cddbd v1.5.2PL0 Copyright (c) Steve Scherf et al.
# Submitted via: EasyCDDAExtractor 10.0.6.1
#
DISCID=a30c0b0e
DTITLE=휘성 - Eternal Essence Of Music
DYEAR=2007
DGENRE=R&B
TTITLE0=Love Hero (Feat.J)
TTITLE1=My Way
TTITLE2=사랑은 맛있다 ♡
TTITLE3=다쳐도 좋아
TTITLE4=차안남녀
TTITLE5=안녕히 계시죠
TTITLE6=어쩌다 보니 비밀
TTITLE7=Savannah Woman (Rap Feat. Verbaljint 김진태)
TTITLE8=이런 시츄에이션
TTITLE9=만져주기 (Feat.윤하)
TTITLE10=Tick Tock
TTITLE11=이별 앞에 서서
TTITLE12=벌
TTITLE13=Against All Odds
EXTD=YEAR: 2007
EXTT0=
EXTT1=
EXTT2=
EXTT3=
EXTT4=
EXTT5=
EXTT6=
EXTT7=
EXTT8=
EXTT9=
EXTT10=
EXTT11=
EXTT12=
EXTT13=
PLAYORDER=
